<svg xmlns="http://www.w3.org/2000/svg" xmlns:xlink="http://www.w3.org/1999/xlink" width="500" zoomAndPan="magnify" viewBox="0 0 375 374.999991" height="500" preserveAspectRatio="xMidYMid meet" version="1.0"><defs><clipPath id="6f63943741"><path d="M 18 36.136719 L 329 36.136719 L 329 169 L 18 169 Z M 18 36.136719 " clip-rule="nonzero"/></clipPath><clipPath id="ea60ed02b1"><path d="M 18 36.136719 L 329 36.136719 L 329 169 L 18 169 Z M 18 36.136719 " clip-rule="nonzero"/></clipPath></defs><g clip-path="url(#6f63943741)"><path fill="#303033" d="M 20.386719 132.300781 C 21.328125 133.109375 22.777344 133.386719 24.042969 133.765625 C 30.117188 135.613281 36.207031 137.421875 42.296875 139.238281 C 52.839844 141.488281 63.339844 143.980469 73.925781 145.945312 C 108.488281 152.375 143.074219 158.632812 177.65625 164.902344 C 185.121094 166.257812 192.585938 167.917969 200.121094 168.492188 C 204.46875 168.828125 209.355469 168.171875 213.324219 166.429688 C 235.449219 156.710938 257.433594 146.664062 279.332031 136.4375 C 291.066406 130.957031 302.535156 124.902344 314.535156 118.800781 C 325.042969 111.707031 328.242188 101.574219 328.277344 90.152344 C 328.308594 81.40625 324.242188 76.375 316.410156 74.527344 C 315.632812 75.671875 315.097656 77.457031 314.035156 77.863281 C 313.964844 77.890625 313.894531 77.914062 313.824219 77.941406 C 313.894531 77.914062 313.964844 77.890625 314.035156 77.863281 C 315.097656 77.457031 315.632812 75.671875 316.261719 74.417969 C 315.738281 74.199219 315.371094 74.085938 314.664062 74.035156 C 308.984375 75.960938 303.570312 77.675781 298.300781 79.746094 C 303.570312 77.683594 308.976562 75.957031 314.460938 73.816406 C 300.824219 69.414062 287.1875 64.75 273.257812 61.25 C 241.074219 53.171875 208.710938 45.785156 176.53125 37.800781 C 170.328125 36.265625 164.386719 36.132812 158.386719 37.695312 C 132.324219 44.476562 106.214844 51.089844 80.285156 58.351562 C 63.21875 63.128906 46.429688 68.890625 29.519531 74.214844 C 27.054688 74.984375 24.714844 75.859375 26.738281 79.171875 C 29.015625 79.371094 31.371094 79.308594 33.632812 79.5625 C 31.359375 79.320312 28.992188 79.445312 26.695312 79.460938 C 26.851562 83.949219 30.945312 81.054688 32.722656 82.929688 C 33.71875 82.976562 34.414062 82.917969 35.046875 83.082031 C 48.855469 86.683594 62.621094 90.453125 76.46875 93.898438 C 100.183594 99.796875 123.953125 105.492188 147.699219 111.273438 C 162.914062 114.972656 178.179688 118.507812 193.335938 122.449219 C 204.238281 125.289062 210.25 133.328125 210.171875 143.824219 C 210.246094 133.332031 204.226562 125.296875 193.335938 122.464844 C 178.179688 118.523438 162.921875 114.996094 147.699219 111.285156 C 123.953125 105.507812 100.183594 99.8125 76.46875 93.914062 C 62.621094 90.46875 48.855469 86.699219 35.046875 83.097656 C 34.414062 82.929688 33.71875 82.992188 32.722656 83.261719 C 33.949219 90.644531 36.28125 97.660156 36.839844 104.804688 C 37.417969 112.09375 36.183594 119.472656 29.003906 124.035156 C 27.574219 124.9375 26.402344 126.238281 25.320312 127.578125 C 27.332031 128.128906 29.230469 128.644531 31.113281 129.046875 C 29.207031 128.644531 27.234375 128.121094 24.984375 127.570312 C 23.496094 127.277344 22.515625 126.964844 21.664062 127.179688 C 20.402344 127.503906 19.230469 128.203125 18.019531 128.742188 C 18.789062 129.953125 19.347656 131.410156 20.386719 132.300781 Z M 253.324219 100.523438 C 251.820312 101.074219 250.050781 100.910156 248.398438 101.074219 C 250.042969 100.910156 251.8125 101.074219 253.324219 100.523438 C 253.542969 100.441406 253.761719 100.359375 253.984375 100.277344 C 253.761719 100.359375 253.542969 100.441406 253.324219 100.523438 Z M 86.726562 111.601562 C 92.292969 113.117188 97.933594 114.367188 103.488281 115.929688 C 113.207031 118.664062 122.863281 121.632812 132.59375 124.355469 C 138.59375 126.027344 144.675781 127.417969 150.945312 129.109375 C 155.792969 130.6875 160.480469 131.914062 165.03125 133.566406 C 168.914062 134.96875 173.113281 134.445312 176.960938 137.21875 C 180.453125 139.734375 185.480469 140.179688 189.890625 141.292969 C 190.023438 141.328125 190.15625 141.347656 190.296875 141.351562 C 190.15625 141.347656 190.015625 141.328125 189.882812 141.292969 C 185.472656 140.179688 180.445312 139.734375 176.957031 137.21875 C 173.105469 134.453125 168.90625 134.976562 165.023438 133.566406 C 160.480469 131.921875 155.792969 130.695312 151.167969 129.28125 C 144.675781 127.417969 138.59375 126.027344 132.585938 124.355469 C 122.855469 121.632812 113.203125 118.664062 103.480469 115.929688 C 97.929688 114.367188 92.285156 113.117188 86.71875 111.601562 C 85.695312 111.324219 84.84375 110.417969 83.910156 109.800781 C 84.878906 109.632812 85.886719 109.199219 86.796875 109.316406 C 85.886719 109.210938 84.875 109.636719 83.917969 109.800781 C 84.851562 110.414062 85.703125 111.324219 86.726562 111.601562 Z M 90.671875 110.007812 C 93.558594 110.53125 96.4375 111.101562 99.28125 111.78125 C 96.433594 111.105469 93.554688 110.535156 90.671875 110.007812 Z M 139.476562 130.566406 C 138.449219 129.992188 137.453125 129.363281 136.386719 128.878906 C 135.6875 128.5625 134.878906 128.445312 134.117188 128.28125 C 129.851562 127.359375 125.582031 126.417969 121.292969 125.589844 C 120.882812 125.507812 120.339844 126.09375 119.855469 126.378906 C 119.855469 126.375 119.851562 126.375 119.851562 126.375 C 120.335938 126.097656 120.882812 125.5 121.292969 125.582031 C 125.582031 126.410156 129.851562 127.351562 134.117188 128.273438 C 134.886719 128.4375 135.6875 128.554688 136.386719 128.871094 C 137.457031 129.355469 138.457031 129.992188 139.488281 130.566406 C 139.484375 130.566406 139.480469 130.566406 139.476562 130.566406 Z M 138.785156 130.59375 C 137.910156 130.625 137.035156 130.65625 136.15625 130.6875 C 132.191406 129.582031 128.355469 128.757812 124.5625 127.972656 C 128.351562 128.742188 132.160156 129.523438 136.035156 130.449219 C 137.003906 130.605469 137.902344 130.613281 138.785156 130.59375 Z M 115.242188 123.976562 C 114.578125 123.738281 113.929688 123.464844 113.253906 123.269531 C 111.304688 122.703125 109.375 121.949219 107.378906 121.679688 C 105.777344 121.460938 104.101562 121.839844 102.453125 121.953125 C 102.449219 121.953125 102.445312 121.949219 102.441406 121.949219 C 104.09375 121.835938 105.773438 121.453125 107.378906 121.671875 C 109.375 121.941406 111.304688 122.695312 113.253906 123.261719 C 113.933594 123.457031 114.582031 123.734375 115.25 123.972656 C 115.246094 123.976562 115.242188 123.976562 115.242188 123.976562 Z M 110.605469 124.773438 C 109.253906 124.511719 107.910156 124.164062 106.558594 123.882812 C 106.460938 123.839844 106.375 123.796875 106.28125 123.753906 C 107.824219 124.128906 109.230469 124.5 110.605469 124.773438 Z M 206.664062 158.273438 C 208.128906 157.515625 208.800781 155.214844 209.828125 153.613281 C 209.800781 152.105469 209.5625 150.5625 209.6875 149.089844 C 209.566406 150.570312 209.835938 152.101562 210.109375 153.5625 C 210.707031 153.113281 211.113281 152.761719 211.3125 152.300781 C 216.589844 141.285156 210.625 127.261719 200.015625 121.640625 C 210.644531 127.253906 216.617188 141.289062 211.34375 152.3125 C 211.125 152.761719 210.722656 153.113281 210.125 153.5625 C 208.808594 155.214844 208.144531 157.511719 206.679688 158.265625 C 205.035156 159.117188 203.199219 160.070312 201.378906 160.667969 C 203.195312 160.066406 205.023438 159.117188 206.664062 158.273438 Z M 187.371094 128.816406 C 187 128.660156 186.628906 128.511719 186.257812 128.363281 C 186.628906 128.511719 187 128.660156 187.371094 128.816406 Z M 185.277344 127.992188 C 184.871094 127.84375 184.464844 127.695312 184.054688 127.550781 C 184.46875 127.695312 184.875 127.84375 185.277344 127.992188 Z M 178.671875 125.710938 C 175.007812 124.742188 171.539062 123.84375 168.121094 122.933594 C 171.59375 123.855469 175.078125 124.753906 178.554688 125.671875 C 178.59375 125.683594 178.632812 125.695312 178.671875 125.710938 Z M 74.996094 100.0625 C 75.355469 100.53125 75.625 101.148438 76.09375 101.433594 C 76.757812 101.835938 77.582031 101.964844 78.320312 102.25 C 84.976562 104.796875 92.308594 104.679688 98.921875 107.519531 C 101.402344 108.589844 104.265625 108.714844 106.886719 109.492188 C 115.78125 112.117188 124.621094 114.898438 133.519531 117.507812 C 149.203125 122.105469 164.917969 126.605469 180.609375 131.179688 C 182.730469 131.800781 184.742188 132.898438 186.894531 133.234375 C 187.804688 133.386719 188.933594 132.160156 189.972656 131.550781 C 189.972656 131.550781 189.972656 131.554688 189.972656 131.554688 C 188.941406 132.160156 187.804688 133.386719 186.886719 133.242188 C 184.734375 132.898438 182.722656 131.808594 180.601562 131.1875 C 164.910156 126.613281 149.195312 122.113281 133.511719 117.515625 C 124.621094 114.90625 115.773438 112.125 106.878906 109.5 C 104.257812 108.722656 101.394531 108.589844 98.914062 107.527344 C 92.292969 104.6875 84.972656 104.804688 78.3125 102.257812 C 77.574219 101.972656 76.75 101.84375 76.085938 101.441406 C 75.617188 101.15625 75.347656 100.535156 74.988281 100.066406 C 74.992188 100.066406 74.996094 100.0625 74.996094 100.0625 Z M 75.71875 116.363281 C 74.914062 116.460938 74.078125 116.738281 73.300781 116.609375 C 66.789062 115.570312 60.28125 114.507812 53.804688 113.304688 C 52.980469 113.15625 52.316406 112.167969 51.578125 111.570312 C 51.582031 111.359375 51.578125 111.222656 51.578125 111.125 C 59.027344 112.167969 66.382812 113.195312 73.703125 114.390625 C 74.464844 114.515625 75.054688 115.683594 75.71875 116.363281 Z M 73.457031 106.570312 C 73.050781 106.6875 72.621094 106.972656 72.253906 106.90625 C 67.636719 106.0625 63.023438 105.179688 58.414062 104.273438 C 58.109375 104.214844 57.859375 103.902344 57.585938 103.707031 C 57.949219 103.496094 58.339844 103.085938 58.691406 103.117188 C 60.082031 103.25 61.464844 103.519531 62.851562 103.742188 C 66.535156 104.535156 69.570312 105.15625 72.605469 105.835938 C 72.925781 105.910156 73.171875 106.316406 73.457031 106.570312 Z M 54.828125 94.355469 C 58.863281 95.214844 62.84375 96.359375 66.835938 97.425781 C 67.375 97.570312 67.859375 97.898438 68.375 98.144531 C 67.777344 98.585938 67.230469 99.207031 66.566406 99.394531 C 66.050781 99.535156 65.386719 99.144531 64.789062 98.964844 C 60.484375 97.6875 56.171875 96.410156 51.867188 95.132812 C 52.503906 94.789062 53.765625 94.121094 54.828125 94.355469 Z M 33.039062 129.414062 C 32.730469 129.363281 32.421875 129.308594 32.109375 129.25 C 32.417969 129.308594 32.730469 129.359375 33.039062 129.414062 Z M 33.039062 129.414062 " fill-opacity="1" fill-rule="nonzero"/></g><path fill="#303033" d="M 25.410156 193.707031 C 26.148438 194.089844 26.632812 194.335938 27.140625 194.457031 C 61.6875 202.492188 96.230469 210.511719 130.777344 218.550781 C 152.320312 223.566406 173.863281 228.589844 195.398438 233.621094 C 200.367188 234.789062 205.640625 231.429688 207.128906 226.371094 C 209.324219 218.863281 208.003906 211.613281 205.917969 204.367188 C 202.914062 193.058594 193.648438 191.472656 184.023438 189.738281 C 161.457031 185.65625 138.945312 181.296875 116.472656 176.730469 C 94.140625 172.183594 71.871094 167.316406 49.613281 162.429688 C 41.0625 160.550781 32.621094 158.210938 23.847656 156.375 C 24.371094 158.355469 25.175781 160.050781 25.976562 161.75 C 27.390625 162.152344 28.789062 162.636719 30.210938 163.003906 C 28.78125 162.640625 27.351562 162.1875 25.761719 161.90625 C 24.847656 164.035156 25.3125 165.367188 27.890625 165.644531 C 34.554688 166.710938 40.898438 167.78125 47.21875 168.964844 C 59.765625 171.308594 72.320312 173.644531 84.835938 176.140625 C 92.78125 177.722656 100.65625 179.644531 108.582031 181.34375 C 114.734375 182.660156 120.914062 183.863281 127.085938 185.082031 C 127.203125 185.105469 127.324219 185.109375 127.445312 185.105469 C 127.320312 185.109375 127.191406 185.105469 127.070312 185.082031 C 120.898438 183.863281 114.71875 182.660156 108.570312 181.34375 C 100.648438 179.644531 92.765625 177.722656 84.820312 176.140625 C 72.304688 173.644531 59.75 171.308594 47.207031 168.964844 C 40.882812 167.773438 34.539062 166.710938 27.882812 165.980469 C 27.671875 167.144531 27.816406 167.921875 27.898438 168.703125 C 28.554688 175.160156 30.714844 181.648438 27.628906 188.355469 C 26.828125 190.277344 26 191.898438 25.410156 193.707031 Z M 180.503906 197.5 C 180.050781 197.152344 179.636719 196.660156 179.121094 196.488281 C 178.65625 196.335938 178.183594 196.183594 177.714844 196.03125 C 178.183594 196.183594 178.652344 196.335938 179.121094 196.488281 C 179.636719 196.660156 180.050781 197.152344 180.503906 197.5 Z M 135.632812 185.050781 C 145.734375 187.71875 155.792969 190.5625 165.882812 193.265625 C 166.808594 193.511719 167.898438 193.175781 168.90625 193.117188 C 171.207031 193.9375 173.324219 194.625 175.367188 195.28125 C 173.347656 194.640625 171.292969 193.992188 169.148438 193.273438 C 167.890625 193.175781 166.808594 193.511719 165.882812 193.265625 C 155.792969 190.5625 145.734375 187.71875 135.632812 185.050781 C 134.65625 184.789062 133.4375 185.433594 132.324219 185.65625 C 133.429688 185.433594 134.65625 184.789062 135.632812 185.050781 Z M 127.59375 189.671875 C 126.816406 189.535156 126.042969 189.359375 125.273438 189.171875 C 126.054688 189.359375 126.824219 189.53125 127.59375 189.664062 C 128.539062 189.828125 129.558594 189.539062 130.550781 189.453125 C 130.554688 189.457031 130.558594 189.460938 130.558594 189.460938 C 129.566406 189.542969 128.542969 189.835938 127.59375 189.671875 Z M 96.265625 177.296875 C 96.789062 177.277344 97.3125 177.273438 97.832031 177.285156 C 97.3125 177.273438 96.792969 177.277344 96.269531 177.296875 C 96.265625 177.296875 96.265625 177.296875 96.265625 177.296875 Z M 104.605469 183.21875 C 105.089844 183.785156 105.492188 184.714844 106.082031 184.855469 C 109.433594 185.65625 112.808594 186.390625 116.28125 187.128906 C 112.738281 186.382812 109.402344 185.65625 106.082031 184.863281 C 105.488281 184.722656 105.09375 183.789062 104.601562 183.21875 C 104.601562 183.21875 104.605469 183.21875 104.605469 183.21875 Z M 104.605469 183.21875 " fill-opacity="1" fill-rule="nonzero"/><path fill="#303033" d="M 373.164062 220.308594 C 365.429688 221.832031 358.003906 223.273438 350.664062 225.0625 C 294.113281 238.855469 237.578125 252.714844 181.035156 266.558594 C 174.96875 268.046875 168.9375 269.691406 162.839844 271.015625 C 160.847656 271.445312 158.667969 271.007812 156.984375 272.296875 C 158.671875 270.996094 160.847656 271.4375 162.847656 271.007812 C 168.953125 269.683594 174.976562 268.039062 181.042969 266.550781 C 237.578125 252.707031 294.121094 238.847656 350.671875 225.054688 C 358.011719 223.265625 365.4375 221.824219 373.164062 220 C 372.09375 218.484375 370.871094 216.824219 369.226562 215.964844 C 366.773438 214.675781 364.039062 213.9375 361.417969 212.996094 C 339.785156 205.265625 318.152344 197.542969 296.519531 189.820312 C 289.125 194.023438 281.691406 198.164062 274.285156 202.34375 C 281.730469 198.136719 289.234375 193.945312 296.757812 189.640625 C 306.496094 184.835938 315.976562 180.230469 325.453125 175.609375 C 332.835938 172.011719 337.566406 165.921875 338.722656 158.085938 C 339.703125 151.46875 339.554688 144.457031 338.507812 137.839844 C 337.476562 131.316406 334.082031 125.199219 327.726562 122.230469 C 323.71875 120.363281 319.027344 119.988281 314.378906 119.03125 C 302.535156 124.914062 291.066406 130.964844 279.335938 136.441406 C 257.433594 146.671875 235.449219 156.71875 213.324219 166.4375 C 209.355469 168.179688 204.46875 168.835938 200.121094 168.5 C 192.585938 167.925781 185.121094 166.265625 177.65625 164.910156 C 143.070312 158.632812 108.488281 152.382812 73.925781 145.953125 C 63.339844 143.980469 52.839844 141.488281 42.050781 139.441406 C 34.9375 141.035156 28.007812 142.207031 21.230469 143.980469 C 19.363281 144.457031 17.953125 146.671875 16.332031 148.089844 C 16.5625 148.0625 16.835938 147.980469 17.074219 147.941406 C 16.828125 148.011719 16.539062 148.167969 16.269531 148.375 C 15.882812 153.863281 20.648438 154.042969 23.816406 156.089844 C 32.628906 158.207031 41.078125 160.546875 49.625 162.421875 C 71.886719 167.3125 94.15625 172.175781 116.488281 176.722656 C 138.957031 181.296875 161.480469 185.648438 184.039062 189.730469 C 193.648438 191.472656 202.90625 193.058594 206.238281 204.277344 C 206.46875 203.523438 206.609375 202.789062 206.582031 202.101562 C 206.621094 202.792969 206.472656 203.535156 206.246094 204.300781 C 208.011719 211.628906 209.332031 218.886719 207.136719 226.390625 C 205.648438 231.453125 200.375 234.800781 195.40625 233.644531 C 173.863281 228.605469 152.328125 223.582031 130.785156 218.574219 C 96.238281 210.535156 61.695312 202.515625 27.148438 194.476562 C 26.632812 194.359375 26.15625 194.113281 25.066406 193.722656 C 24.070312 193.515625 23.585938 193.339844 23.285156 193.507812 C 21.613281 194.449219 18.894531 195.195312 18.5625 196.519531 C 18.488281 196.828125 18.457031 197.109375 18.46875 197.367188 C 18.457031 197.105469 18.484375 196.816406 18.5625 196.496094 C 18.894531 195.171875 21.613281 194.425781 23.285156 193.484375 C 23.578125 193.320312 24.0625 193.492188 24.820312 193.515625 C 26 191.90625 26.835938 190.285156 27.328125 188.414062 C 23.21875 189.492188 19.511719 191.054688 15.664062 192.070312 C 7.871094 194.121094 3.371094 199.5625 2.289062 206.925781 C 0.945312 216.097656 0.839844 225.472656 0.480469 234.773438 C 0.199219 242.152344 4.308594 247.316406 10 251.308594 C 25.953125 262.5 41.730469 273.984375 58.03125 284.652344 C 83.828125 301.539062 109.53125 318.621094 137.636719 331.613281 C 144.21875 334.65625 150.914062 337.648438 158.347656 336.542969 C 165.449219 335.488281 172.5625 334.179688 179.472656 332.273438 C 220.734375 320.886719 261.976562 309.433594 303.140625 297.710938 C 324.003906 291.769531 344.710938 285.25 365.429688 278.820312 C 366.863281 278.371094 367.859375 276.488281 369.0625 275.269531 C 367.550781 274.589844 366.035156 273.917969 364.527344 273.234375 C 337.40625 280.535156 310.269531 287.792969 283.15625 295.117188 C 310.265625 287.78125 337.382812 280.484375 364.421875 272.988281 C 356.890625 266.097656 355.640625 257.394531 356.6875 248.222656 C 357.144531 244.175781 358.539062 240.179688 359.992188 236.335938 C 361.320312 232.816406 363.28125 229.554688 364.96875 226.179688 C 364.984375 226.175781 364.996094 226.171875 365.011719 226.167969 C 365.054688 226.152344 365.144531 226.167969 365.152344 226.167969 C 365.332031 225.996094 365.550781 225.921875 366.265625 225.875 C 368.507812 225.316406 370.308594 224.890625 372.058594 224.3125 C 374.113281 223.640625 374.824219 222.363281 373.164062 220.308594 Z M 279.476562 272.175781 C 279.453125 272.191406 279.433594 272.210938 279.410156 272.230469 C 279.433594 272.210938 279.453125 272.191406 279.476562 272.175781 Z M 242.695312 276.449219 C 242.625 276.4375 242.558594 276.421875 242.488281 276.410156 C 253.734375 273.257812 264.628906 269.972656 275.613281 266.992188 C 264.597656 269.984375 253.667969 273.28125 242.695312 276.449219 Z M 269.824219 273.941406 C 267.324219 274.578125 264.796875 275.222656 262.199219 275.875 C 262.128906 275.886719 262.074219 275.894531 262.003906 275.910156 C 264.71875 275.230469 267.304688 274.578125 269.824219 273.941406 Z M 257.386719 277.503906 C 258.347656 277.574219 259.378906 277.894531 260.273438 277.667969 C 266.371094 276.152344 272.445312 274.523438 278.519531 272.898438 C 278.632812 272.867188 278.738281 272.804688 278.839844 272.730469 C 278.734375 272.808594 278.628906 272.875 278.511719 272.90625 C 272.4375 274.527344 266.363281 276.160156 260.265625 277.675781 C 259.367188 277.902344 258.34375 277.578125 257.371094 277.511719 C 257.378906 277.507812 257.382812 277.507812 257.386719 277.503906 Z M 271 259.472656 C 271.386719 259.535156 271.816406 259.742188 272.144531 259.636719 C 273.59375 259.160156 274.96875 258.417969 276.441406 258.097656 C 280.507812 257.199219 284.648438 256.632812 288.683594 255.636719 C 292.828125 254.617188 296.972656 253.558594 301.132812 252.480469 C 296.957031 253.566406 292.820312 254.621094 288.683594 255.644531 C 284.648438 256.640625 280.507812 257.207031 276.441406 258.105469 C 274.96875 258.433594 273.585938 259.171875 272.144531 259.644531 C 271.816406 259.757812 271.382812 259.539062 270.996094 259.480469 C 270.996094 259.476562 271 259.476562 271 259.472656 Z M 241.582031 274.34375 C 247.492188 272.664062 253.398438 270.984375 259.308594 269.320312 C 253.398438 270.984375 247.492188 272.664062 241.582031 274.34375 Z M 239.925781 275.78125 C 239.722656 275.71875 239.527344 275.660156 239.335938 275.597656 C 239.335938 275.597656 239.339844 275.59375 239.34375 275.59375 C 239.339844 275.59375 239.335938 275.597656 239.335938 275.597656 C 239.53125 275.660156 239.726562 275.71875 239.925781 275.78125 Z M 265.660156 152.253906 C 279.871094 144.5 294.085938 136.675781 308.46875 128.816406 C 310.007812 127.960938 311.453125 127.210938 312.804688 126.40625 C 311.472656 127.203125 310.085938 127.929688 308.746094 128.714844 C 294.164062 136.648438 279.890625 144.492188 265.660156 152.253906 Z M 254.109375 158.539062 C 257.621094 156.632812 261.132812 154.722656 264.640625 152.808594 C 261.128906 154.722656 257.621094 156.632812 254.109375 158.539062 Z M 249.332031 157.9375 C 270.621094 146.199219 291.941406 134.523438 313.3125 122.925781 C 314.984375 122.023438 317.054688 121.859375 318.945312 121.347656 C 318.945312 121.351562 318.941406 121.351562 318.941406 121.351562 C 317.054688 121.859375 314.988281 122.023438 313.316406 122.925781 C 291.945312 134.523438 270.628906 146.199219 249.339844 157.9375 C 247.769531 158.804688 246.546875 160.265625 245.15625 161.457031 C 245.152344 161.457031 245.152344 161.457031 245.148438 161.457031 C 246.539062 160.269531 247.769531 158.796875 249.332031 157.9375 Z M 86.269531 240.378906 C 79.679688 236.875 72.992188 233.523438 66.65625 229.597656 C 54.542969 222.09375 42.625 214.28125 30.683594 206.5 C 29.421875 205.675781 26.730469 204.863281 29.554688 202.445312 C 28.625 202.097656 27.644531 201.722656 26.628906 201.367188 C 27.703125 201.722656 28.769531 202.097656 29.847656 202.433594 C 30.511719 202.746094 31.183594 203.058594 32.457031 203.375 C 33.125 203.40625 33.65625 203.417969 34.117188 203.441406 C 33.703125 203.429688 33.25 203.429688 32.730469 203.425781 C 47.691406 214.871094 63.488281 225.441406 80.628906 233.898438 C 83.125 235.125 85.472656 236.671875 87.773438 238.242188 C 88.421875 238.691406 88.664062 239.738281 89.089844 240.507812 C 88.140625 240.476562 87.019531 240.777344 86.269531 240.378906 Z M 151.785156 280.835938 C 149.277344 286.191406 147.945312 291.839844 149.300781 298.183594 C 149.859375 297.5625 150.183594 297.023438 150.375 296.449219 C 152.28125 290.863281 153.792969 285.105469 156.234375 279.769531 C 156.480469 279.230469 156.84375 278.691406 157.277344 278.175781 C 156.84375 278.6875 156.488281 279.226562 156.242188 279.761719 C 153.796875 285.101562 152.289062 290.855469 150.382812 296.441406 C 150.191406 297.023438 149.859375 297.554688 149.292969 298.511719 C 149.117188 300.957031 149.191406 303.023438 149.367188 305.070312 C 149.191406 303.019531 149.109375 300.949219 149 298.570312 C 147.855469 291.957031 149.253906 286.21875 151.785156 280.835938 Z M 304.140625 259.773438 C 307.136719 258.792969 310.109375 257.710938 313.152344 256.914062 C 310.105469 257.714844 307.132812 258.792969 304.140625 259.773438 Z M 344.558594 240.984375 C 341.875 241.71875 339.1875 242.433594 336.5 243.144531 C 339.195312 242.429688 341.878906 241.710938 344.558594 240.976562 C 345.289062 240.785156 345.78125 239.71875 346.386719 239.0625 C 346.386719 239.0625 346.390625 239.0625 346.390625 239.0625 C 345.785156 239.722656 345.292969 240.78125 344.558594 240.984375 Z M 344.558594 240.984375 " fill-opacity="1" fill-rule="nonzero"/><path fill="#303033" d="M 365.3125 226.300781 C 365.699219 226.300781 365.921875 226.167969 365.976562 225.996094 C 365.550781 225.921875 365.332031 225.996094 365.3125 226.300781 Z M 365.3125 226.300781 " fill-opacity="1" fill-rule="nonzero"/><path fill="#2e59a7" d="M 141.433594 264.847656 C 142.507812 265.378906 143.539062 266.15625 144.675781 266.367188 C 146.140625 266.632812 147.6875 266.441406 149.195312 266.449219 C 148.121094 265.453125 147.207031 264.054688 145.9375 263.53125 C 137.226562 259.914062 128.453125 256.445312 119.648438 253.042969 C 118.605469 252.640625 117.28125 252.945312 116.085938 252.925781 C 116.984375 253.777344 117.738281 254.964844 118.796875 255.421875 C 126.121094 258.546875 133.519531 261.519531 141.433594 264.847656 Z M 141.433594 264.847656 " fill-opacity="1" fill-rule="nonzero"/><path fill="#f45830" d="M 260.71875 301.195312 C 227.542969 310.234375 194.394531 319.40625 161.292969 328.699219 C 158.371094 329.519531 157.003906 328.414062 155.683594 326.472656 C 151.332031 320.078125 150.046875 312.746094 149.382812 305.246094 C 149.195312 303.140625 149.113281 301.015625 149 298.570312 C 147.320312 288.882812 151.101562 281.070312 155.90625 273.503906 C 157.660156 270.746094 160.390625 271.539062 162.847656 271.007812 C 168.953125 269.683594 174.976562 268.039062 181.042969 266.550781 C 237.578125 252.707031 294.121094 238.847656 350.671875 225.054688 C 358.011719 223.265625 365.4375 221.824219 373.164062 220 C 372.09375 218.484375 370.871094 216.824219 369.226562 215.964844 C 366.773438 214.675781 364.039062 213.9375 361.417969 212.996094 C 339.785156 205.265625 318.152344 197.542969 296.519531 189.820312 L 29.308594 188.183594 C 28.636719 187.730469 27.753906 187.757812 27.027344 188.167969 C 25.921875 188.792969 24.769531 189.144531 23.515625 189.554688 C 20.90625 190.410156 18.324219 191.371094 15.664062 192.070312 C 7.871094 194.121094 3.371094 199.5625 2.289062 206.925781 C 0.945312 216.097656 0.839844 225.472656 0.480469 234.773438 C 0.199219 242.152344 4.308594 247.316406 10 251.308594 C 25.953125 262.5 41.730469 273.984375 58.03125 284.652344 C 83.828125 301.539062 109.53125 318.621094 137.636719 331.613281 C 144.21875 334.65625 150.914062 337.648438 158.347656 336.542969 C 165.449219 335.488281 172.5625 334.179688 179.472656 332.273438 C 220.734375 320.886719 261.976562 309.433594 303.140625 297.710938 C 324.003906 291.769531 344.710938 285.25 365.429688 278.820312 C 366.863281 278.371094 367.859375 276.488281 369.0625 275.269531 C 367.550781 274.589844 366.035156 273.917969 364.527344 273.234375 C 329.921875 282.550781 295.292969 291.789062 260.71875 301.195312 Z M 260.71875 301.195312 " fill-opacity="1" fill-rule="nonzero"/><path fill="#fcac3d" d="M 338.507812 137.839844 C 337.476562 131.316406 334.082031 125.199219 327.726562 122.230469 C 323.71875 120.363281 319.027344 119.988281 314.378906 119.03125 L 119.980469 109.292969 L 42.050781 139.441406 C 34.9375 141.035156 28.007812 142.207031 21.230469 143.980469 C 19.363281 144.457031 17.953125 146.671875 16.332031 148.089844 C 16.726562 148.046875 17.265625 147.804688 17.503906 147.976562 C 27.441406 155.183594 39.523438 156.292969 50.851562 158.886719 C 87.136719 167.199219 123.601562 174.734375 160.039062 182.351562 C 170.679688 184.578125 181.417969 186.574219 192.207031 187.78125 C 200.925781 188.75 204.558594 193.941406 206.480469 201.429688 C 206.710938 202.304688 206.546875 203.285156 206.246094 204.300781 C 208.011719 211.628906 209.332031 218.886719 207.136719 226.390625 C 205.648438 231.453125 200.375 234.800781 195.40625 233.644531 C 173.863281 228.605469 152.328125 223.582031 130.785156 218.574219 C 96.238281 210.535156 61.695312 202.515625 27.148438 194.476562 C 26.632812 194.359375 26.15625 194.113281 25.066406 193.722656 C 24.070312 193.511719 23.585938 193.339844 23.285156 193.507812 C 21.613281 194.449219 18.894531 195.195312 18.5625 196.519531 C 17.9375 199.054688 20.402344 199.753906 22.667969 200.234375 C 25.101562 200.75 27.457031 201.683594 29.847656 202.433594 C 30.511719 202.746094 31.183594 203.058594 32.457031 203.375 C 33.851562 203.441406 34.667969 203.417969 35.4375 203.597656 C 49.605469 206.871094 63.757812 210.238281 77.941406 213.460938 C 118.417969 222.660156 158.941406 231.683594 199.371094 241.082031 C 206.808594 242.808594 212.761719 241.34375 218.867188 237.039062 C 229.34375 229.644531 239.984375 222.445312 250.96875 215.84375 C 265.945312 206.84375 281.308594 198.476562 296.757812 189.640625 C 306.496094 184.835938 315.976562 180.230469 325.453125 175.609375 C 332.835938 172.011719 337.566406 165.921875 338.722656 158.085938 C 339.703125 151.46875 339.554688 144.457031 338.507812 137.839844 Z M 338.507812 137.839844 " fill-opacity="1" fill-rule="nonzero"/><g clip-path="url(#ea60ed02b1)"><path fill="#2e59a7" d="M 328.277344 90.152344 C 328.242188 101.574219 325.042969 111.707031 314.535156 118.800781 C 302.535156 124.902344 291.066406 130.957031 279.332031 136.4375 C 257.433594 146.664062 235.449219 156.710938 213.324219 166.429688 C 209.355469 168.171875 204.46875 168.828125 200.121094 168.492188 C 192.585938 167.917969 185.121094 166.257812 177.65625 164.902344 C 143.074219 158.632812 108.488281 152.375 73.925781 145.945312 C 63.339844 143.980469 52.839844 141.488281 42.296875 139.238281 C 36.207031 137.421875 30.117188 135.613281 24.042969 133.765625 C 22.777344 133.386719 21.328125 133.109375 20.386719 132.300781 C 19.347656 131.410156 18.789062 129.953125 18.019531 128.742188 C 19.230469 128.203125 20.402344 127.503906 21.664062 127.179688 C 22.515625 126.964844 23.496094 127.277344 24.984375 127.570312 C 28.25 128.371094 30.929688 129.117188 33.664062 129.511719 C 42.339844 130.785156 51.113281 131.5 59.699219 133.191406 C 97.824219 140.695312 135.902344 148.425781 173.980469 156.15625 C 181.765625 157.734375 189.410156 160.117188 197.257812 161.203125 C 200.238281 161.613281 203.757812 159.773438 206.679688 158.265625 C 208.144531 157.511719 208.808594 155.214844 210.125 153.5625 C 210.722656 153.113281 211.125 152.761719 211.34375 152.3125 C 217.367188 139.726562 208.71875 123.203125 195.226562 119.792969 C 179.953125 115.9375 164.679688 112.019531 149.308594 108.609375 C 111.394531 100.191406 73.6875 91.019531 36.40625 80.089844 C 33.359375 79.191406 29.96875 79.453125 26.738281 79.171875 C 24.714844 75.859375 27.054688 74.984375 29.519531 74.214844 C 46.429688 68.890625 63.21875 63.128906 80.285156 58.351562 C 106.214844 51.089844 132.324219 44.476562 158.386719 37.695312 C 164.386719 36.132812 170.328125 36.265625 176.53125 37.800781 C 208.710938 45.785156 241.074219 53.171875 273.257812 61.25 C 287.1875 64.75 300.824219 69.414062 314.460938 73.816406 L 316.269531 74.746094 C 316.316406 74.671875 316.367188 74.601562 316.410156 74.527344 C 324.242188 76.375 328.308594 81.40625 328.277344 90.152344 Z M 328.277344 90.152344 " fill-opacity="1" fill-rule="nonzero"/></g><path fill="#fcac3d" d="M 308.746094 128.714844 C 310.695312 127.578125 312.742188 126.566406 314.574219 125.265625 C 316.15625 124.136719 317.496094 122.664062 318.945312 121.347656 C 317.054688 121.859375 314.984375 122.023438 313.3125 122.925781 C 291.941406 134.523438 270.621094 146.199219 249.332031 157.9375 C 247.769531 158.796875 246.539062 160.269531 245.148438 161.457031 C 247.0625 161.097656 249.21875 161.1875 250.847656 160.304688 C 270.015625 149.929688 289.101562 139.402344 308.746094 128.714844 Z M 308.746094 128.714844 " fill-opacity="1" fill-rule="nonzero"/><path fill="#e5e1d7" d="M 364.421875 272.988281 C 329.921875 282.550781 295.292969 291.789062 260.71875 301.203125 C 227.542969 310.242188 194.402344 319.414062 161.292969 328.707031 C 158.371094 329.527344 157.003906 328.414062 155.683594 326.480469 C 151.324219 320.085938 150.046875 312.753906 149.382812 305.253906 C 149.195312 303.148438 149.113281 301.03125 149.292969 298.511719 C 149.859375 297.554688 150.191406 297.023438 150.382812 296.441406 C 152.289062 290.855469 153.796875 285.101562 156.242188 279.761719 C 157.226562 277.609375 159.992188 275.457031 162.347656 274.871094 C 184.195312 269.421875 206.140625 264.347656 228.035156 259.089844 C 273.683594 248.140625 319.324219 237.148438 364.972656 226.167969 C 363.285156 229.546875 361.320312 232.8125 359.992188 236.335938 C 358.539062 240.175781 357.144531 244.175781 356.6875 248.222656 C 355.640625 257.394531 356.890625 266.097656 364.421875 272.988281 Z M 242.695312 276.449219 C 253.667969 273.28125 264.597656 269.984375 275.613281 266.992188 C 283.628906 264.816406 291.789062 263.164062 299.832031 261.066406 C 304.320312 259.890625 308.65625 258.097656 313.152344 256.917969 C 317.742188 255.71875 322.433594 254.957031 327.074219 253.941406 C 327.726562 253.796875 328.285156 253.273438 328.890625 252.929688 C 328.152344 252.609375 327.328125 251.890625 326.695312 252.027344 C 319.519531 253.566406 312.339844 255.113281 305.21875 256.910156 C 295.804688 259.277344 286.417969 261.804688 277.054688 264.375 C 265.210938 267.628906 253.398438 270.984375 241.582031 274.34375 C 240.785156 274.574219 240.082031 275.171875 239.335938 275.597656 C 240.230469 275.882812 241.136719 276.160156 242.695312 276.449219 Z M 318.707031 247.796875 C 327.328125 245.546875 335.960938 243.332031 344.558594 240.984375 C 345.292969 240.785156 345.785156 239.722656 346.390625 239.0625 C 345.582031 238.839844 344.710938 238.300781 343.976562 238.449219 C 339.203125 239.429688 334.421875 240.433594 329.703125 241.664062 C 313.140625 246 296.574219 250.367188 280.050781 254.890625 C 277.21875 255.667969 274.605469 257.246094 271.90625 258.507812 C 271.53125 258.679688 271.292969 259.144531 270.996094 259.480469 C 271.382812 259.539062 271.816406 259.757812 272.144531 259.644531 C 273.585938 259.171875 274.96875 258.433594 276.441406 258.105469 C 280.507812 257.207031 284.648438 256.640625 288.683594 255.644531 C 298.507812 253.214844 308.296875 250.628906 318.707031 247.796875 Z M 261.902344 275.933594 C 261.265625 276.054688 260.601562 276.089844 260.003906 276.316406 C 259.105469 276.644531 258.246094 277.109375 257.371094 277.511719 C 258.34375 277.578125 259.367188 277.902344 260.265625 277.675781 C 266.363281 276.160156 272.4375 274.527344 278.511719 272.90625 C 278.871094 272.808594 279.15625 272.421875 279.476562 272.175781 C 279.125 272.03125 278.734375 271.703125 278.4375 271.769531 C 273.117188 273.09375 267.8125 274.460938 261.902344 275.933594 Z M 261.902344 275.933594 " fill-opacity="1" fill-rule="nonzero"/><path fill="#e5e1d7" d="M 205.917969 204.367188 C 208.003906 211.613281 209.324219 218.863281 207.128906 226.371094 C 205.640625 231.429688 200.367188 234.789062 195.398438 233.621094 C 173.863281 228.589844 152.320312 223.566406 130.777344 218.550781 C 96.230469 210.511719 61.6875 202.492188 27.140625 194.457031 C 26.632812 194.335938 26.148438 194.089844 25.410156 193.707031 C 26 191.898438 26.828125 190.277344 27.628906 188.355469 C 30.714844 181.648438 28.554688 175.160156 27.898438 168.703125 C 27.816406 167.921875 27.671875 167.144531 27.882812 165.980469 C 34.539062 166.710938 40.882812 167.773438 47.207031 168.964844 C 59.75 171.308594 72.304688 173.644531 84.820312 176.140625 C 92.765625 177.726562 100.648438 179.644531 108.570312 181.34375 C 114.71875 182.660156 120.898438 183.863281 127.070312 185.082031 C 127.554688 185.179688 128.09375 184.976562 128.609375 184.917969 C 128.222656 184.394531 127.921875 183.535156 127.429688 183.390625 C 125.066406 182.734375 122.675781 182.046875 120.246094 181.777344 C 112.15625 180.871094 104.71875 176.976562 96.253906 177.296875 C 92.332031 177.449219 88.386719 174.683594 84.320312 173.84375 C 66.699219 170.210938 49.027344 166.808594 31.386719 163.28125 C 29.554688 162.914062 27.777344 162.265625 25.976562 161.75 C 25.175781 160.050781 24.371094 158.355469 23.847656 156.375 C 32.621094 158.210938 41.0625 160.550781 49.613281 162.429688 C 71.871094 167.316406 94.140625 172.183594 116.472656 176.730469 C 138.945312 181.296875 161.457031 185.65625 184.023438 189.738281 C 193.648438 191.472656 202.914062 193.058594 205.917969 204.367188 Z M 168.90625 193.117188 C 167.898438 193.175781 166.808594 193.511719 165.882812 193.265625 C 155.792969 190.5625 145.734375 187.71875 135.632812 185.050781 C 134.65625 184.789062 133.429688 185.433594 132.324219 185.65625 C 133.21875 186.171875 134.058594 186.933594 135.019531 187.175781 C 145.070312 189.679688 155.136719 192.117188 165.203125 194.546875 C 169.691406 195.628906 174.183594 196.691406 178.6875 197.699219 C 179.25 197.828125 179.898438 197.574219 180.503906 197.5 C 180.050781 197.152344 179.636719 196.660156 179.121094 196.488281 C 175.894531 195.433594 172.636719 194.449219 168.90625 193.117188 Z M 121.53125 188.226562 C 123.550781 188.722656 125.554688 189.3125 127.59375 189.671875 C 128.542969 189.835938 129.566406 189.542969 130.558594 189.460938 C 129.714844 188.796875 128.953125 187.742188 128.003906 187.519531 C 120.898438 185.851562 113.761719 184.316406 106.617188 182.824219 C 106 182.695312 105.273438 183.078125 104.601562 183.21875 C 105.09375 183.789062 105.488281 184.722656 106.082031 184.863281 C 110.988281 186.039062 115.929688 187.0625 121.53125 188.226562 Z M 121.53125 188.226562 " fill-opacity="1" fill-rule="nonzero"/><path fill="#e5e1d7" d="M 209.828125 153.613281 C 208.800781 155.214844 208.128906 157.515625 206.664062 158.273438 C 203.742188 159.773438 200.222656 161.621094 197.242188 161.210938 C 189.40625 160.125 181.753906 157.75 173.964844 156.164062 C 135.886719 148.433594 97.808594 140.695312 59.683594 133.199219 C 51.097656 131.507812 42.328125 130.792969 33.652344 129.519531 C 30.917969 129.117188 28.234375 128.375 25.320312 127.578125 C 26.402344 126.238281 27.574219 124.9375 29.003906 124.035156 C 36.183594 119.472656 37.417969 112.09375 36.839844 104.804688 C 36.28125 97.660156 33.949219 90.644531 32.722656 83.261719 C 33.71875 82.992188 34.414062 82.929688 35.046875 83.09375 C 48.855469 86.699219 62.621094 90.464844 76.46875 93.914062 C 100.183594 99.8125 123.953125 105.507812 147.703125 111.285156 C 162.921875 114.996094 178.179688 118.523438 193.335938 122.464844 C 205.785156 125.699219 211.867188 135.734375 209.765625 148.464844 C 209.488281 150.125 209.796875 151.886719 209.828125 153.613281 Z M 51.515625 111.113281 L 51.570312 110.929688 C 51.570312 110.929688 51.585938 111.0625 51.578125 111.570312 C 52.316406 112.167969 52.980469 113.15625 53.804688 113.304688 C 60.28125 114.507812 66.789062 115.570312 73.300781 116.609375 C 74.078125 116.738281 74.914062 116.460938 75.71875 116.363281 C 75.054688 115.683594 74.464844 114.515625 73.703125 114.390625 C 66.363281 113.191406 58.988281 112.160156 51.515625 111.113281 Z M 178.554688 125.671875 C 174.265625 124.542969 169.960938 123.441406 165.679688 122.292969 C 159.53125 120.640625 153.394531 118.90625 147.238281 117.273438 C 141.207031 115.683594 135.191406 113.992188 129.082031 112.765625 C 127.257812 112.402344 125.738281 112.175781 123.902344 111.355469 C 119.328125 109.304688 114.128906 108.640625 109.175781 107.460938 C 103.339844 106.070312 97.472656 104.789062 91.652344 103.332031 C 86.703125 102.097656 81.816406 100.648438 76.871094 99.402344 C 76.332031 99.265625 75.625 99.828125 74.988281 100.066406 C 75.347656 100.535156 75.617188 101.15625 76.085938 101.441406 C 76.75 101.84375 77.574219 101.972656 78.3125 102.257812 C 84.972656 104.804688 92.292969 104.6875 98.914062 107.527344 C 101.394531 108.589844 104.257812 108.722656 106.878906 109.5 C 115.773438 112.125 124.621094 114.90625 133.511719 117.515625 C 149.195312 122.113281 164.910156 126.613281 180.601562 131.1875 C 182.722656 131.808594 184.734375 132.898438 186.886719 133.242188 C 187.804688 133.386719 188.941406 132.160156 189.972656 131.554688 C 189.320312 130.703125 188.851562 129.453125 188 129.078125 C 185.136719 127.832031 182.125 126.902344 178.554688 125.671875 Z M 151.167969 129.28125 C 155.792969 130.695312 160.480469 131.921875 165.023438 133.566406 C 168.90625 134.976562 173.105469 134.453125 176.957031 137.21875 C 180.445312 139.734375 185.472656 140.179688 189.882812 141.292969 C 190.945312 141.5625 192.25 140.855469 193.445312 140.601562 C 192.722656 139.679688 192.183594 138.34375 191.242188 137.914062 C 185.914062 135.515625 180.109375 134.605469 174.609375 132.496094 C 165.402344 128.960938 155.726562 126.636719 146.175781 124.046875 C 131.089844 119.957031 115.964844 116.019531 100.820312 112.148438 C 96.246094 110.972656 91.570312 110.164062 86.914062 109.328125 C 85.972656 109.15625 84.917969 109.628906 83.910156 109.800781 C 84.84375 110.417969 85.695312 111.324219 86.71875 111.601562 C 92.285156 113.117188 97.929688 114.367188 103.480469 115.929688 C 113.203125 118.664062 122.855469 121.632812 132.585938 124.355469 C 138.59375 126.027344 144.675781 127.417969 151.167969 129.28125 Z M 136.15625 130.6875 C 137.269531 130.648438 138.382812 130.605469 139.488281 130.566406 C 138.457031 129.992188 137.457031 129.355469 136.386719 128.871094 C 135.6875 128.554688 134.886719 128.4375 134.117188 128.273438 C 129.851562 127.351562 125.582031 126.410156 121.292969 125.582031 C 120.882812 125.5 120.335938 126.097656 119.851562 126.375 C 120.210938 126.664062 120.523438 127.144531 120.921875 127.226562 C 125.910156 128.257812 130.917969 129.230469 136.15625 130.6875 Z M 51.867188 95.132812 C 56.171875 96.410156 60.484375 97.6875 64.789062 98.964844 C 65.386719 99.144531 66.050781 99.535156 66.566406 99.394531 C 67.230469 99.207031 67.777344 98.585938 68.375 98.144531 C 67.859375 97.898438 67.375 97.570312 66.835938 97.425781 C 62.84375 96.359375 58.863281 95.214844 54.828125 94.355469 C 53.765625 94.121094 52.503906 94.789062 51.867188 95.132812 Z M 62.851562 103.742188 C 61.464844 103.519531 60.082031 103.25 58.691406 103.117188 C 58.339844 103.085938 57.949219 103.496094 57.585938 103.707031 C 57.859375 103.902344 58.109375 104.214844 58.414062 104.273438 C 63.023438 105.179688 67.636719 106.0625 72.253906 106.90625 C 72.621094 106.972656 73.050781 106.6875 73.457031 106.570312 C 73.171875 106.316406 72.925781 105.910156 72.605469 105.835938 C 69.570312 105.15625 66.535156 104.535156 62.851562 103.742188 Z M 106.558594 123.882812 C 108.597656 124.308594 110.625 124.902344 112.6875 125.09375 C 113.5 125.167969 114.390625 124.378906 115.25 123.972656 C 114.582031 123.734375 113.933594 123.457031 113.253906 123.261719 C 111.304688 122.695312 109.375 121.941406 107.378906 121.671875 C 105.773438 121.453125 104.09375 121.835938 102.441406 121.949219 C 103.621094 122.507812 104.800781 123.054688 106.558594 123.882812 Z M 106.558594 123.882812 " fill-opacity="1" fill-rule="nonzero"/><path fill="#303033" d="M 365.011719 226.167969 C 319.320312 237.15625 273.675781 248.148438 228.027344 259.097656 C 206.128906 264.355469 184.1875 269.429688 162.339844 274.878906 C 159.992188 275.464844 157.222656 277.617188 156.234375 279.769531 C 153.792969 285.105469 152.28125 290.863281 150.375 296.449219 C 150.183594 297.023438 149.859375 297.5625 149.300781 298.183594 C 147.3125 288.890625 151.09375 281.078125 155.898438 273.511719 C 157.648438 270.753906 160.382812 271.546875 162.839844 271.015625 C 168.9375 269.691406 174.96875 268.046875 181.035156 266.558594 C 237.578125 252.714844 294.113281 238.855469 350.664062 225.0625 C 358.003906 223.273438 365.429688 221.832031 373.164062 220.308594 C 374.824219 222.363281 374.113281 223.640625 372.058594 224.3125 C 370.308594 224.890625 368.507812 225.316406 366.265625 225.875 C 365.550781 225.921875 365.332031 225.996094 365.152344 226.167969 C 365.144531 226.167969 365.054688 226.152344 365.011719 226.167969 Z M 365.011719 226.167969 " fill-opacity="1" fill-rule="nonzero"/><path fill="#303033" d="M 206.238281 204.277344 C 202.90625 193.058594 193.648438 191.472656 184.039062 189.730469 C 161.480469 185.648438 138.957031 181.296875 116.488281 176.722656 C 94.15625 172.175781 71.886719 167.3125 49.625 162.421875 C 41.078125 160.546875 32.628906 158.207031 23.816406 156.089844 C 20.648438 154.042969 15.882812 153.863281 16.269531 148.375 C 16.734375 148.015625 17.273438 147.777344 17.511719 147.957031 C 27.449219 155.164062 39.523438 156.269531 50.859375 158.863281 C 87.144531 167.175781 123.601562 174.703125 160.046875 182.328125 C 170.6875 184.558594 181.425781 186.554688 192.214844 187.757812 C 200.933594 188.730469 204.566406 193.917969 206.484375 201.40625 C 206.703125 202.28125 206.546875 203.261719 206.238281 204.277344 Z M 206.238281 204.277344 " fill-opacity="1" fill-rule="nonzero"/><path fill="#303033" d="M 210.109375 153.5625 C 209.796875 151.886719 209.488281 150.125 209.765625 148.449219 C 211.867188 135.726562 205.792969 125.691406 193.335938 122.449219 C 178.179688 118.507812 162.914062 114.972656 147.703125 111.273438 C 123.953125 105.492188 100.183594 99.796875 76.46875 93.898438 C 62.621094 90.453125 48.855469 86.683594 35.046875 83.082031 C 34.414062 82.917969 33.71875 82.976562 32.722656 82.929688 C 30.945312 81.054688 26.851562 83.949219 26.695312 79.460938 C 29.9375 79.441406 33.328125 79.1875 36.378906 80.074219 C 73.65625 91.003906 111.363281 100.183594 149.277344 108.59375 C 164.65625 112.011719 179.921875 115.929688 195.195312 119.78125 C 208.691406 123.1875 217.34375 139.710938 211.3125 152.300781 C 211.113281 152.761719 210.707031 153.113281 210.109375 153.5625 Z M 210.109375 153.5625 " fill-opacity="1" fill-rule="nonzero"/><path fill="#303033" d="M 25.761719 161.90625 C 27.792969 162.265625 29.5625 162.914062 31.402344 163.28125 C 49.042969 166.808594 66.714844 170.210938 84.335938 173.84375 C 88.402344 174.683594 92.347656 177.449219 96.269531 177.296875 C 104.726562 176.976562 112.171875 180.871094 120.261719 181.777344 C 122.691406 182.046875 125.082031 182.734375 127.445312 183.390625 C 127.945312 183.535156 128.234375 184.386719 128.625 184.917969 C 128.109375 184.976562 127.5625 185.179688 127.085938 185.082031 C 120.914062 183.863281 114.734375 182.660156 108.582031 181.34375 C 100.65625 179.644531 92.78125 177.722656 84.835938 176.140625 C 72.320312 173.644531 59.765625 171.308594 47.21875 168.964844 C 40.898438 167.78125 34.554688 166.710938 27.890625 165.644531 C 25.3125 165.367188 24.847656 164.035156 25.761719 161.90625 Z M 25.761719 161.90625 " fill-opacity="1" fill-rule="nonzero"/><path fill="#303033" d="M 316.261719 74.417969 C 315.632812 75.671875 315.097656 77.457031 314.035156 77.863281 C 293.84375 85.53125 273.59375 93.0625 253.324219 100.523438 C 251.8125 101.074219 250.042969 100.910156 248.398438 101.074219 C 249.640625 100.09375 250.746094 98.765625 252.148438 98.195312 C 267.488281 91.96875 282.851562 85.808594 298.261719 79.761719 C 303.542969 77.683594 308.96875 75.964844 314.664062 74.035156 C 315.371094 74.085938 315.738281 74.199219 316.261719 74.417969 Z M 316.261719 74.417969 " fill-opacity="1" fill-rule="nonzero"/><path fill="#e5e1d7" d="M 365.3125 226.300781 C 365.332031 225.996094 365.550781 225.921875 365.976562 225.996094 C 365.921875 226.167969 365.699219 226.300781 365.3125 226.300781 Z M 365.3125 226.300781 " fill-opacity="1" fill-rule="nonzero"/><path fill="#303033" d="M 29.554688 202.453125 C 30.519531 202.730469 31.191406 203.046875 32.132812 203.417969 C 47.691406 214.871094 63.496094 225.441406 80.628906 233.898438 C 83.117188 235.125 85.472656 236.671875 87.773438 238.242188 C 88.421875 238.683594 88.664062 239.738281 89.089844 240.507812 C 88.140625 240.484375 87.019531 240.78125 86.269531 240.378906 C 79.679688 236.878906 72.992188 233.523438 66.65625 229.597656 C 54.542969 222.09375 42.625 214.28125 30.683594 206.5 C 29.429688 205.683594 26.730469 204.875 29.554688 202.453125 Z M 29.554688 202.453125 " fill-opacity="1" fill-rule="nonzero"/><path fill="#303033" d="M 141.164062 264.699219 C 133.519531 261.519531 126.121094 258.546875 118.785156 255.414062 C 117.714844 254.957031 116.96875 253.769531 116.070312 252.917969 C 117.265625 252.9375 118.589844 252.632812 119.636719 253.035156 C 128.4375 256.4375 137.210938 259.914062 145.921875 263.523438 C 147.191406 264.054688 148.105469 265.445312 149.179688 266.441406 C 147.671875 266.433594 146.125 266.628906 144.660156 266.359375 C 143.53125 266.164062 142.507812 265.378906 141.164062 264.699219 Z M 141.164062 264.699219 " fill-opacity="1" fill-rule="nonzero"/><path fill="#303033" d="M 308.46875 128.816406 C 289.09375 139.402344 270.015625 149.929688 250.855469 160.304688 C 249.226562 161.1875 247.066406 161.097656 245.15625 161.457031 C 246.546875 160.269531 247.769531 158.804688 249.339844 157.9375 C 270.628906 146.199219 291.945312 134.523438 313.316406 122.925781 C 314.992188 122.023438 317.0625 121.859375 318.953125 121.347656 C 317.503906 122.671875 316.164062 124.136719 314.582031 125.265625 C 312.742188 126.566406 310.703125 127.578125 308.46875 128.816406 Z M 308.46875 128.816406 " fill-opacity="1" fill-rule="nonzero"/><path fill="#303033" d="M 242.367188 276.441406 C 241.136719 276.160156 240.238281 275.882812 239.335938 275.597656 C 240.082031 275.171875 240.777344 274.566406 241.582031 274.34375 C 253.398438 270.984375 265.210938 267.628906 277.054688 264.375 C 286.417969 261.804688 295.796875 259.277344 305.21875 256.910156 C 312.339844 255.113281 319.511719 253.566406 326.695312 252.027344 C 327.328125 251.890625 328.152344 252.609375 328.890625 252.929688 C 328.285156 253.273438 327.726562 253.796875 327.074219 253.941406 C 322.441406 254.957031 317.742188 255.71875 313.152344 256.917969 C 308.664062 258.089844 304.328125 259.890625 299.832031 261.066406 C 291.789062 263.164062 283.628906 264.816406 275.613281 266.992188 C 264.589844 269.984375 253.660156 273.28125 242.367188 276.441406 Z M 242.367188 276.441406 " fill-opacity="1" fill-rule="nonzero"/><path fill="#303033" d="M 318.40625 247.945312 C 308.304688 250.621094 298.515625 253.214844 288.683594 255.636719 C 284.648438 256.632812 280.507812 257.199219 276.441406 258.097656 C 274.96875 258.417969 273.59375 259.160156 272.144531 259.636719 C 271.816406 259.742188 271.382812 259.53125 270.996094 259.472656 C 271.292969 259.144531 271.53125 258.679688 271.90625 258.5 C 274.597656 257.246094 277.210938 255.660156 280.050781 254.882812 C 296.574219 250.359375 313.132812 245.992188 329.703125 241.65625 C 334.421875 240.425781 339.203125 239.421875 343.976562 238.441406 C 344.710938 238.292969 345.582031 238.832031 346.390625 239.054688 C 345.785156 239.714844 345.292969 240.785156 344.558594 240.976562 C 335.960938 243.332031 327.320312 245.546875 318.40625 247.945312 Z M 318.40625 247.945312 " fill-opacity="1" fill-rule="nonzero"/><path fill="#303033" d="M 262.199219 275.875 C 267.8125 274.460938 273.125 273.085938 278.445312 271.761719 C 278.734375 271.6875 279.132812 272.015625 279.484375 272.167969 C 279.160156 272.421875 278.878906 272.800781 278.519531 272.898438 C 272.445312 274.523438 266.371094 276.152344 260.273438 277.667969 C 259.375 277.894531 258.34375 277.570312 257.378906 277.503906 C 258.253906 277.101562 259.105469 276.636719 260.011719 276.308594 C 260.601562 276.089844 261.265625 276.054688 262.199219 275.875 Z M 262.199219 275.875 " fill-opacity="1" fill-rule="nonzero"/><path fill="#303033" d="M 169.148438 193.273438 C 172.636719 194.441406 175.894531 195.425781 179.121094 196.488281 C 179.636719 196.660156 180.050781 197.152344 180.503906 197.5 C 179.898438 197.574219 179.25 197.828125 178.6875 197.699219 C 174.183594 196.691406 169.683594 195.628906 165.203125 194.546875 C 155.136719 192.117188 145.0625 189.679688 135.019531 187.175781 C 134.058594 186.933594 133.21875 186.171875 132.324219 185.65625 C 133.4375 185.433594 134.65625 184.789062 135.632812 185.050781 C 145.734375 187.71875 155.792969 190.5625 165.882812 193.265625 C 166.808594 193.511719 167.890625 193.175781 169.148438 193.273438 Z M 169.148438 193.273438 " fill-opacity="1" fill-rule="nonzero"/><path fill="#303033" d="M 121.195312 188.175781 C 115.929688 187.054688 110.988281 186.03125 106.082031 184.855469 C 105.488281 184.714844 105.085938 183.78125 104.601562 183.210938 C 105.273438 183.070312 106 182.679688 106.617188 182.816406 C 113.761719 184.316406 120.898438 185.84375 128.003906 187.511719 C 128.953125 187.734375 129.714844 188.789062 130.558594 189.453125 C 129.566406 189.535156 128.542969 189.828125 127.59375 189.664062 C 125.554688 189.3125 123.550781 188.722656 121.195312 188.175781 Z M 121.195312 188.175781 " fill-opacity="1" fill-rule="nonzero"/><path fill="#303033" d="M 178.859375 125.761719 C 182.125 126.902344 185.136719 127.832031 188.007812 129.070312 C 188.859375 129.4375 189.328125 130.695312 189.980469 131.546875 C 188.941406 132.152344 187.804688 133.386719 186.894531 133.234375 C 184.742188 132.898438 182.730469 131.800781 180.609375 131.179688 C 164.917969 126.605469 149.203125 122.105469 133.519531 117.507812 C 124.621094 114.898438 115.78125 112.117188 106.886719 109.492188 C 104.265625 108.714844 101.402344 108.589844 98.921875 107.519531 C 92.308594 104.679688 84.976562 104.796875 78.320312 102.25 C 77.582031 101.964844 76.757812 101.835938 76.09375 101.433594 C 75.621094 101.148438 75.355469 100.527344 74.996094 100.058594 C 75.621094 99.820312 76.339844 99.257812 76.878906 99.394531 C 81.816406 100.640625 86.710938 102.089844 91.660156 103.324219 C 97.480469 104.777344 103.34375 106.0625 109.179688 107.453125 C 114.136719 108.632812 119.335938 109.289062 123.910156 111.347656 C 125.738281 112.167969 127.257812 112.394531 129.085938 112.757812 C 135.191406 113.984375 141.214844 115.675781 147.246094 117.269531 C 153.402344 118.890625 159.539062 120.625 165.6875 122.285156 C 169.960938 123.441406 174.257812 124.542969 178.859375 125.761719 Z M 178.859375 125.761719 " fill-opacity="1" fill-rule="nonzero"/><path fill="#303033" d="M 150.945312 129.109375 C 144.675781 127.417969 138.59375 126.027344 132.59375 124.355469 C 122.863281 121.632812 113.207031 118.664062 103.488281 115.929688 C 97.933594 114.367188 92.292969 113.117188 86.726562 111.601562 C 85.703125 111.324219 84.851562 110.414062 83.917969 109.800781 C 84.917969 109.628906 85.980469 109.164062 86.921875 109.328125 C 91.578125 110.164062 96.246094 110.980469 100.828125 112.148438 C 115.964844 116.019531 131.097656 119.957031 146.183594 124.046875 C 155.734375 126.636719 165.410156 128.960938 174.617188 132.496094 C 180.117188 134.605469 185.921875 135.507812 191.25 137.914062 C 192.199219 138.34375 192.730469 139.679688 193.453125 140.601562 C 192.257812 140.859375 190.949219 141.5625 189.890625 141.292969 C 185.480469 140.179688 180.453125 139.734375 176.960938 137.21875 C 173.113281 134.445312 168.914062 134.96875 165.03125 133.566406 C 160.480469 131.914062 155.792969 130.6875 150.945312 129.109375 Z M 150.945312 129.109375 " fill-opacity="1" fill-rule="nonzero"/><path fill="#303033" d="M 51.628906 111.078125 C 58.988281 112.152344 66.363281 113.1875 73.710938 114.390625 C 74.472656 114.515625 75.0625 115.683594 75.726562 116.363281 C 74.921875 116.453125 74.082031 116.730469 73.304688 116.609375 C 66.796875 115.570312 60.289062 114.507812 53.8125 113.304688 C 52.988281 113.15625 52.324219 112.167969 51.597656 111.324219 C 51.613281 111.078125 51.628906 111.078125 51.628906 111.078125 Z M 51.628906 111.078125 " fill-opacity="1" fill-rule="nonzero"/><path fill="#303033" d="M 136.035156 130.449219 C 130.917969 129.230469 125.910156 128.257812 120.921875 127.234375 C 120.523438 127.152344 120.203125 126.671875 119.851562 126.378906 C 120.335938 126.097656 120.882812 125.507812 121.292969 125.589844 C 125.582031 126.417969 129.851562 127.359375 134.117188 128.28125 C 134.878906 128.445312 135.6875 128.5625 136.386719 128.878906 C 137.457031 129.363281 138.457031 130 139.488281 130.574219 C 138.375 130.605469 137.261719 130.648438 136.035156 130.449219 Z M 136.035156 130.449219 " fill-opacity="1" fill-rule="nonzero"/><path fill="#303033" d="M 51.597656 95.085938 C 52.503906 94.789062 53.765625 94.121094 54.835938 94.347656 C 58.871094 95.207031 62.851562 96.351562 66.84375 97.417969 C 67.382812 97.5625 67.867188 97.890625 68.382812 98.136719 C 67.785156 98.570312 67.238281 99.199219 66.574219 99.386719 C 66.058594 99.527344 65.394531 99.140625 64.796875 98.960938 C 60.484375 97.6875 56.171875 96.402344 51.597656 95.085938 Z M 51.597656 95.085938 " fill-opacity="1" fill-rule="nonzero"/><path fill="#303033" d="M 63.175781 103.820312 C 66.527344 104.535156 69.5625 105.15625 72.589844 105.84375 C 72.910156 105.917969 73.15625 106.324219 73.441406 106.578125 C 73.039062 106.695312 72.613281 106.972656 72.238281 106.914062 C 67.621094 106.070312 63.007812 105.1875 58.398438 104.28125 C 58.101562 104.222656 57.847656 103.910156 57.570312 103.714844 C 57.945312 103.503906 58.332031 103.09375 58.675781 103.125 C 60.082031 103.25 61.464844 103.527344 63.175781 103.820312 Z M 63.175781 103.820312 " fill-opacity="1" fill-rule="nonzero"/><path fill="#303033" d="M 106.265625 123.75 C 104.796875 123.0625 103.621094 122.507812 102.441406 121.953125 C 104.09375 121.84375 105.773438 121.460938 107.378906 121.679688 C 109.375 121.949219 111.304688 122.703125 113.253906 123.269531 C 113.933594 123.464844 114.582031 123.742188 115.25 123.980469 C 114.390625 124.378906 113.5 125.175781 112.6875 125.101562 C 110.625 124.902344 108.597656 124.316406 106.265625 123.75 Z M 106.265625 123.75 " fill-opacity="1" fill-rule="nonzero"/><path fill="#303033" d="M 51.597656 111.070312 C 51.585938 111.0625 51.570312 110.929688 51.570312 110.929688 C 51.570312 110.929688 51.515625 111.113281 51.570312 111.101562 C 51.628906 111.078125 51.613281 111.078125 51.597656 111.070312 Z M 51.597656 111.070312 " fill-opacity="1" fill-rule="nonzero"/></svg>